<svg width="180" height="180" viewBox="0 0 180 180" fill="none" xmlns="http://www.w3.org/2000/svg">
<g filter="url(#filter0_d)">
<mask id="mask0" mask-type="alpha" maskUnits="userSpaceOnUse" x="10" y="0" width="80" height="80">
<path d="M10 0H90V80H10V0Z" fill="#032354"/>
</mask>
<g mask="url(#mask0)">
<circle cx="90" cy="80" r="76" stroke="url(#paint0_linear)" stroke-width="8"/>
</g>
<mask id="mask1" mask-type="alpha" maskUnits="userSpaceOnUse" x="89" y="-1" width="82" height="162">
<path d="M90 0H170V160H90V80V0Z" fill="white"/>
<path d="M90 0H170V160H90V80V0Z" stroke="white"/>
</mask>
<g mask="url(#mask1)">
<circle cx="90" cy="80" r="76" stroke="url(#paint1_linear)" stroke-width="8"/>
</g>
<mask id="mask2" mask-type="alpha" maskUnits="userSpaceOnUse" x="10" y="80" width="160" height="80">
<path d="M10 80H90L170 160H10V80Z" fill="#032354"/>
</mask>
<g mask="url(#mask2)">
<circle cx="90" cy="80" r="76" stroke="url(#paint2_linear)" stroke-width="8"/>
</g>
</g>
<path fill-rule="evenodd" clip-rule="evenodd" d="M120.414 50.1921C119.107 48.3713 119.345 45.9171 120.928 44.3338C122.868 42.3942 126.193 42.5525 127.855 44.7296C138.78 59.1775 138.741 78.2963 127.855 92.3088C126.193 94.4859 122.907 94.6442 120.968 92.7046L120.849 92.5859C119.305 91.0421 119.028 88.5879 120.295 86.8067C128.172 75.565 128.212 61.0379 120.414 50.1921ZM64.7992 68.5192C64.7992 59.7747 71.888 52.6858 80.6325 52.6858C89.377 52.6858 96.4658 59.7747 96.4658 68.5192C96.4658 77.2637 89.377 84.3525 80.6325 84.3525C71.888 84.3525 64.7992 77.2637 64.7992 68.5192ZM48.9658 108.102C48.9658 97.5733 70.0637 92.2692 80.6325 92.2692C91.2012 92.2692 112.299 97.5733 112.299 108.102V112.061C112.299 114.238 110.518 116.019 108.341 116.019H52.9242C50.7471 116.019 48.9658 114.238 48.9658 112.061V108.102ZM106.243 63.6504C107.51 66.7775 107.51 70.2609 106.243 73.3879C105.491 75.2484 105.807 77.3463 107.232 78.7713L107.351 78.89C109.647 81.1859 113.566 80.7109 115.07 77.8213C118.078 72.0817 118.078 65.3525 114.991 59.3754C113.487 56.4463 109.528 55.8921 107.193 58.2275L107.153 58.2671C105.807 59.6525 105.491 61.79 106.243 63.6504Z" fill="black" fill-opacity="0.54"/>
<defs>
<filter id="filter0_d" x="0" y="0" width="180" height="180" filterUnits="userSpaceOnUse" color-interpolation-filters="sRGB">
<feFlood flood-opacity="0" result="BackgroundImageFix"/>
<feColorMatrix in="SourceAlpha" type="matrix" values="0 0 0 0 0 0 0 0 0 0 0 0 0 0 0 0 0 0 127 0"/>
<feOffset dy="10"/>
<feGaussianBlur stdDeviation="5"/>
<feColorMatrix type="matrix" values="0 0 0 0 0 0 0 0 0 0 0 0 0 0 0 0 0 0 0.25 0"/>
<feBlend mode="normal" in2="BackgroundImageFix" result="effect1_dropShadow"/>
<feBlend mode="normal" in="SourceGraphic" in2="effect1_dropShadow" result="shape"/>
</filter>
<linearGradient id="paint0_linear" x1="10" y1="0" x2="89.9987" y2="-0.327207" gradientUnits="userSpaceOnUse">
<stop stop-color="#032354"/>
<stop offset="1" stop-color="#032354"/>
</linearGradient>
<linearGradient id="paint1_linear" x1="170" y1="80.0002" x2="90" y2="80.0002" gradientUnits="userSpaceOnUse">
<stop stop-color="#F27A54"/>
<stop offset="1" stop-color="#A154F2"/>
</linearGradient>
<linearGradient id="paint2_linear" x1="10" y1="80" x2="10" y2="160" gradientUnits="userSpaceOnUse">
<stop stop-color="#032354"/>
<stop offset="1" stop-color="#032354"/>
</linearGradient>
</defs>
</svg>
