<svg width="180" height="180" viewBox="0 0 180 180" fill="none" xmlns="http://www.w3.org/2000/svg">
<g filter="url(#filter0_d)">
<mask id="mask0" mask-type="alpha" maskUnits="userSpaceOnUse" x="10" y="0" width="80" height="80">
<path d="M10 0H90V80H10V0Z" fill="#032354"/>
</mask>
<g mask="url(#mask0)">
<circle cx="90" cy="80" r="76" stroke="url(#paint0_linear)" stroke-width="8"/>
</g>
<mask id="mask1" mask-type="alpha" maskUnits="userSpaceOnUse" x="89" y="-1" width="82" height="162">
<path d="M90 0H170V160H90V80V0Z" fill="white"/>
<path d="M90 0H170V160H90V80V0Z" stroke="white"/>
</mask>
<g mask="url(#mask1)">
<circle cx="90" cy="80" r="76" stroke="url(#paint1_linear)" stroke-width="8"/>
</g>
<mask id="mask2" mask-type="alpha" maskUnits="userSpaceOnUse" x="10" y="80" width="160" height="80">
<path d="M10 80H90L170 160H10V80Z" fill="#032354"/>
</mask>
<g mask="url(#mask2)">
<circle cx="90" cy="80" r="76" stroke="url(#paint2_linear)" stroke-width="8"/>
</g>
</g>
<path d="M70.4754 40.7647V84.2647C70.4754 86.9231 72.5192 89.0981 75.0171 89.0981H84.1004V123.656C84.1004 126.121 87.1433 126.991 88.3242 124.865L111.895 81.8481C113.667 78.6097 111.487 74.5981 107.99 74.5981H97.7254L109.034 42.4564C110.17 39.3147 107.99 35.9314 104.81 35.9314H75.0171C72.5192 35.9314 70.4754 38.1064 70.4754 40.7647Z" fill="black" fill-opacity="0.54"/>
<defs>
<filter id="filter0_d" x="0" y="0" width="180" height="180" filterUnits="userSpaceOnUse" color-interpolation-filters="sRGB">
<feFlood flood-opacity="0" result="BackgroundImageFix"/>
<feColorMatrix in="SourceAlpha" type="matrix" values="0 0 0 0 0 0 0 0 0 0 0 0 0 0 0 0 0 0 127 0"/>
<feOffset dy="10"/>
<feGaussianBlur stdDeviation="5"/>
<feColorMatrix type="matrix" values="0 0 0 0 0 0 0 0 0 0 0 0 0 0 0 0 0 0 0.25 0"/>
<feBlend mode="normal" in2="BackgroundImageFix" result="effect1_dropShadow"/>
<feBlend mode="normal" in="SourceGraphic" in2="effect1_dropShadow" result="shape"/>
</filter>
<linearGradient id="paint0_linear" x1="10" y1="0" x2="89.9987" y2="-0.327207" gradientUnits="userSpaceOnUse">
<stop stop-color="#032354"/>
<stop offset="1" stop-color="#032354"/>
</linearGradient>
<linearGradient id="paint1_linear" x1="170" y1="80.0002" x2="90" y2="80.0002" gradientUnits="userSpaceOnUse">
<stop stop-color="#F27A54"/>
<stop offset="1" stop-color="#A154F2"/>
</linearGradient>
<linearGradient id="paint2_linear" x1="10" y1="80" x2="10" y2="160" gradientUnits="userSpaceOnUse">
<stop stop-color="#032354"/>
<stop offset="1" stop-color="#032354"/>
</linearGradient>
</defs>
</svg>
