<svg width="180" height="180" viewBox="0 0 180 180" fill="none" xmlns="http://www.w3.org/2000/svg">
<g filter="url(#filter0_d)">
<mask id="mask0" mask-type="alpha" maskUnits="userSpaceOnUse" x="10" y="0" width="80" height="80">
<path d="M10 0H90V80H10V0Z" fill="#032354"/>
</mask>
<g mask="url(#mask0)">
<circle cx="90" cy="80" r="76" stroke="url(#paint0_linear)" stroke-width="8"/>
</g>
<mask id="mask1" mask-type="alpha" maskUnits="userSpaceOnUse" x="89" y="-1" width="82" height="162">
<path d="M90 0H170V160H90V80V0Z" fill="white"/>
<path d="M90 0H170V160H90V80V0Z" stroke="white"/>
</mask>
<g mask="url(#mask1)">
<circle cx="90" cy="80" r="76" stroke="url(#paint1_linear)" stroke-width="8"/>
</g>
<mask id="mask2" mask-type="alpha" maskUnits="userSpaceOnUse" x="10" y="80" width="160" height="80">
<path d="M10 80H90L170 160H10V80Z" fill="#032354"/>
</mask>
<g mask="url(#mask2)">
<circle cx="90" cy="80" r="76" stroke="url(#paint2_linear)" stroke-width="8"/>
</g>
</g>
<path fill-rule="evenodd" clip-rule="evenodd" d="M85.4079 59.3333C85.4079 67.7024 78.7025 74.4583 70.3333 74.4583C61.9642 74.4583 55.2083 67.7024 55.2083 59.3333C55.2083 50.9641 61.9642 44.2083 70.3333 44.2083C78.7025 44.2083 85.4079 50.9641 85.4079 59.3333ZM125.741 59.3333C125.741 67.7024 119.036 74.4583 110.667 74.4583C102.298 74.4583 95.5417 67.7024 95.5417 59.3333C95.5417 50.9641 102.298 44.2083 110.667 44.2083C119.036 44.2083 125.741 50.9641 125.741 59.3333ZM70.3333 84.5416C58.5863 84.5416 35.0417 90.4403 35.0417 102.187V109.75C35.0417 112.523 37.3104 114.792 40.0833 114.792H100.583C103.356 114.792 105.625 112.523 105.625 109.75V102.187C105.625 90.4403 82.0804 84.5416 70.3333 84.5416ZM105.776 84.7937C107.541 84.6424 109.205 84.5416 110.667 84.5416C122.414 84.5416 145.958 90.4403 145.958 102.187V109.75C145.958 112.523 143.69 114.792 140.917 114.792H114.801C115.355 113.229 115.708 111.515 115.708 109.75V102.187C115.708 94.7762 111.725 89.1799 105.978 84.9953C105.963 84.9801 105.947 84.9602 105.931 84.9385C105.892 84.8885 105.847 84.8288 105.776 84.7937Z" fill="black" fill-opacity="0.54"/>
<defs>
<filter id="filter0_d" x="0" y="0" width="180" height="180" filterUnits="userSpaceOnUse" color-interpolation-filters="sRGB">
<feFlood flood-opacity="0" result="BackgroundImageFix"/>
<feColorMatrix in="SourceAlpha" type="matrix" values="0 0 0 0 0 0 0 0 0 0 0 0 0 0 0 0 0 0 127 0"/>
<feOffset dy="10"/>
<feGaussianBlur stdDeviation="5"/>
<feColorMatrix type="matrix" values="0 0 0 0 0 0 0 0 0 0 0 0 0 0 0 0 0 0 0.25 0"/>
<feBlend mode="normal" in2="BackgroundImageFix" result="effect1_dropShadow"/>
<feBlend mode="normal" in="SourceGraphic" in2="effect1_dropShadow" result="shape"/>
</filter>
<linearGradient id="paint0_linear" x1="10" y1="0" x2="89.9987" y2="-0.327207" gradientUnits="userSpaceOnUse">
<stop stop-color="#032354"/>
<stop offset="1" stop-color="#032354"/>
</linearGradient>
<linearGradient id="paint1_linear" x1="170" y1="80.0002" x2="90" y2="80.0002" gradientUnits="userSpaceOnUse">
<stop stop-color="#F27A54"/>
<stop offset="1" stop-color="#A154F2"/>
</linearGradient>
<linearGradient id="paint2_linear" x1="10" y1="80" x2="10" y2="160" gradientUnits="userSpaceOnUse">
<stop stop-color="#032354"/>
<stop offset="1" stop-color="#032354"/>
</linearGradient>
</defs>
</svg>
