<svg width="180" height="180" viewBox="0 0 180 180" fill="none" xmlns="http://www.w3.org/2000/svg">
<g filter="url(#filter0_d)">
<mask id="mask0" mask-type="alpha" maskUnits="userSpaceOnUse" x="10" y="0" width="80" height="80">
<path d="M10 0H90V80H10V0Z" fill="#032354"/>
</mask>
<g mask="url(#mask0)">
<circle cx="90" cy="80" r="76" stroke="url(#paint0_linear)" stroke-width="8"/>
</g>
<mask id="mask1" mask-type="alpha" maskUnits="userSpaceOnUse" x="89" y="-1" width="82" height="162">
<path d="M90 0H170V160H90V80V0Z" fill="white"/>
<path d="M90 0H170V160H90V80V0Z" stroke="white"/>
</mask>
<g mask="url(#mask1)">
<circle cx="90" cy="80" r="76" stroke="url(#paint1_linear)" stroke-width="8"/>
</g>
<mask id="mask2" mask-type="alpha" maskUnits="userSpaceOnUse" x="10" y="80" width="160" height="80">
<path d="M10 80H90L170 160H10V80Z" fill="#032354"/>
</mask>
<g mask="url(#mask2)">
<circle cx="90" cy="80" r="76" stroke="url(#paint2_linear)" stroke-width="8"/>
</g>
</g>
<path fill-rule="evenodd" clip-rule="evenodd" d="M78.5922 20.9375H102.426C105.703 20.9375 108.384 23.6187 108.384 26.8958C108.384 30.1729 105.703 32.8542 102.426 32.8542H78.5922C75.3152 32.8542 72.6339 30.1729 72.6339 26.8958C72.6339 23.6187 75.3152 20.9375 78.5922 20.9375ZM96.4672 92.4375C96.4672 95.7146 93.786 98.3958 90.5089 98.3958C87.2318 98.3958 84.5506 95.7146 84.5506 92.4375V68.6042C84.5506 65.3271 87.2318 62.6458 90.5089 62.6458C93.786 62.6458 96.4672 65.3271 96.4672 68.6042V92.4375ZM132.396 59.0112L136.865 54.5425C139.129 52.2783 139.189 48.5246 136.865 46.2008L136.805 46.1413C134.481 43.8175 130.787 43.8771 128.464 46.1413L123.995 50.61C114.759 43.2217 103.141 38.8125 90.509 38.8125C61.909 38.8125 37.599 62.4075 36.884 91.0075C36.1094 121.276 60.3598 146.062 90.509 146.062C120.181 146.062 144.134 122.05 144.134 92.4375C144.134 79.8058 139.725 68.1871 132.396 59.0112ZM48.8006 92.4375C48.8006 115.496 67.4502 134.146 90.5089 134.146C113.568 134.146 132.217 115.496 132.217 92.4375C132.217 69.3788 113.568 50.7292 90.5089 50.7292C67.4502 50.7292 48.8006 69.3788 48.8006 92.4375Z" fill="black" fill-opacity="0.54"/>
<defs>
<filter id="filter0_d" x="0" y="0" width="180" height="180" filterUnits="userSpaceOnUse" color-interpolation-filters="sRGB">
<feFlood flood-opacity="0" result="BackgroundImageFix"/>
<feColorMatrix in="SourceAlpha" type="matrix" values="0 0 0 0 0 0 0 0 0 0 0 0 0 0 0 0 0 0 127 0"/>
<feOffset dy="10"/>
<feGaussianBlur stdDeviation="5"/>
<feColorMatrix type="matrix" values="0 0 0 0 0 0 0 0 0 0 0 0 0 0 0 0 0 0 0.25 0"/>
<feBlend mode="normal" in2="BackgroundImageFix" result="effect1_dropShadow"/>
<feBlend mode="normal" in="SourceGraphic" in2="effect1_dropShadow" result="shape"/>
</filter>
<linearGradient id="paint0_linear" x1="10" y1="0" x2="89.9987" y2="-0.327207" gradientUnits="userSpaceOnUse">
<stop stop-color="#032354"/>
<stop offset="1" stop-color="#032354"/>
</linearGradient>
<linearGradient id="paint1_linear" x1="170" y1="80.0002" x2="90" y2="80.0002" gradientUnits="userSpaceOnUse">
<stop stop-color="#F27A54"/>
<stop offset="1" stop-color="#A154F2"/>
</linearGradient>
<linearGradient id="paint2_linear" x1="10" y1="80" x2="10" y2="160" gradientUnits="userSpaceOnUse">
<stop stop-color="#032354"/>
<stop offset="1" stop-color="#032354"/>
</linearGradient>
</defs>
</svg>
